<svg width="16" height="16" viewBox="0 0 16 16" fill="none" xmlns="http://www.w3.org/2000/svg">
<g id="calendar" clip-path="url(#clip0_46_1106)">
<path id="Vector" d="M13.3334 1.99999H12.6667V1.33332C12.6667 0.966656 12.3667 0.666656 12 0.666656C11.6334 0.666656 11.3334 0.966656 11.3334 1.33332V1.99999H4.66671V1.33332C4.66671 0.966656 4.36671 0.666656 4.00004 0.666656C3.63337 0.666656 3.33337 0.966656 3.33337 1.33332V1.99999H2.66671C1.93337 1.99999 1.33337 2.59999 1.33337 3.33332V14C1.33337 14.7333 1.93337 15.3333 2.66671 15.3333H13.3334C14.0667 15.3333 14.6667 14.7333 14.6667 14V3.33332C14.6667 2.59999 14.0667 1.99999 13.3334 1.99999ZM12.6667 14H3.33337C2.96671 14 2.66671 13.7 2.66671 13.3333V5.33332H13.3334V13.3333C13.3334 13.7 13.0334 14 12.6667 14Z" fill="#61676B"/>
</g>
<defs>
<clipPath id="clip0_46_1106">
<rect width="16" height="16" fill="white"/>
</clipPath>
</defs>
</svg>
